# xmcd
#
# Track frame offsets:
#	150
#	18950
#	36082
#
# Disc length: 763 seconds
#
# Revision: 0
# Processed by: cddbd v1.4PL0 Copyright (c) Steve Scherf et al.
# Submitted via: dBpowerAMP V4.0
#
DISCID=1802f903
DTITLE=Gabrielle - Gabrielle
DYEAR=1900
DGENRE=Blues
TTITLE0=If you really cared
TTITLE1=Because of you
TTITLE2=Dreams
EXTD=Gabrielle - 1996
EXTT0=
EXTT1=
EXTT2=
PLAYORDER=
